<svg xmlns="http://www.w3.org/2000/svg" width="500" height="500" viewBox="0 0 375.001 374.999">
   <circle cx="187.5" cy="187.5" r="187.5" fill="#fff"/>
   <path fill="#ffcab4" d="M276.55 258.859v-8.922h26.758c13.936 0 25.273-11.337 25.273-25.273s-11.337-25.273-25.273-25.273h-26.76v-8.92h26.76c18.854 0 34.193 15.339 34.193 34.193s-15.338 34.192-34.193 34.192z"/>
   <path fill="#3999c6" d="M291.416 183.04h-17.84v71.357h29.732v-59.464c0-6.569-5.324-11.893-11.892-11.893z"/>
   <path fill="#59b4d9" d="M273.576 183.04h-11.893c-6.568 0-11.893 5.323-11.893 11.892v59.465h35.68v-59.464c0-6.569-5.326-11.892-11.894-11.892z"/>
   <path fill="#7fba00" d="M303.308 236.558h-17.84l8.92 53.518h17.84v-29.932c0-9.046-3.372-17.298-8.92-23.587z"/>
   <path fill="#b8d432" d="M285.468 236.558h-35.677c-5.549 6.288-8.92 14.541-8.92 23.586v29.932h53.519v-29.932c0-9.046-3.373-17.298-8.92-23.587z"/>
   <path fill="#ffcab4" d="M284.929 129.252l-8.38 35.949c14.78 0 26.759-11.982 26.759-26.76zm0 0"/>
   <path fill="#ffd9ca" d="M285.468 138.442c0-3.23-.191-6.324-.539-9.19l-24.439-12.217c-6.498 4.88-10.7 12.652-10.7 21.407 0 14.777 11.98 26.76 26.76 26.76 4.924 0 8.918-11.983 8.918-26.76zm0 0"/>
   <path fill="#c6795b" d="M276.55 111.68l8.859 23.688a53.399 53.399 0 0 0 17.899 3.074c0-14.78-11.98-26.761-26.759-26.761zm0 0"/>
   <path fill="#e28865" d="M276.55 111.68a26.647 26.647 0 0 0-16.06 5.354 53.654 53.654 0 0 0 24.917 18.334c-.506-13.33-4.278-23.687-8.858-23.687zm0 0"/>
   <path fill="#e28865" d="M289.927 98.303c0 7.388-5.99 13.378-13.378 13.378-7.39 0-13.38-5.99-13.38-13.378 0-7.39 5.99-13.38 13.38-13.38 7.389 0 13.378 5.99 13.378 13.38zm0 0"/>
   <path fill="#333" d="M131.25 270.398a2.964 2.964 0 0 1-2.965-2.965V233.81a2.964 2.964 0 0 1 2.965-2.965 2.964 2.964 0 0 1 2.965 2.965v33.624a2.965 2.965 0 0 1-2.965 2.965z"/>
   <path fill="#666" d="M131.25 84.923c-6.15 0-11.134 4.985-11.134 11.134v21.403h22.268V96.057c0-6.15-4.984-11.134-11.134-11.134z"/>
   <path fill="#eee" d="M219.141 244.912V124.247l-87.89-11.171-87.892 11.17v120.666z"/>
   <path fill="#ddd" d="M131.25 113.474l-87.89 11.32v12.117H219.14v-12.117z"/>
   <path fill="#999" d="M218.573 101.358H43.927c-3.55 0-6.427 3.04-6.427 6.795v9.846c0 3.753 2.877 6.796 6.427 6.796h174.646c3.55 0 6.428-3.043 6.428-6.796v-9.846c-.001-3.753-2.878-6.797-6.428-6.797z"/>
   <circle cx="131.853" cy="271.496" r="9.899" fill="#999"/>
   <path fill="#666" d="M135.807 277.442c-5.467 0-9.898-4.43-9.898-9.897a9.86 9.86 0 0 1 1.206-4.74 9.896 9.896 0 0 0-5.16 8.693c0 5.467 4.433 9.898 9.898 9.898a9.897 9.897 0 0 0 8.692-5.16 9.853 9.853 0 0 1-4.738 1.207z"/>
   <path fill="#59b4d9" d="M168.4 193.701v-17.76l-20.108 17.467h-.44V175.94l-20.108 17.467V156.86c0-3.082-6.9-6.165-16-6.165s-16.585 2.935-16.585 6.164v66.931h73.389zm-56.656-33.906c-6.604 0-11.888-1.615-11.888-3.376s5.284-3.376 11.888-3.376c6.606 0 11.89 1.468 11.89 3.375-.147 1.762-5.431 3.377-11.89 3.377zm34.64 52.107h-8.072v-8.074h8.072zm-14.237 0h-8.073v-8.074h8.073zm20.549 0v-8.074h8.073v8.074z"/>
   <path fill="#3999c6" d="M95.158 156.419h16.293v67.371H95.159z"/>
   <path fill="#fff" d="M127.596 156.419c0 3.228-7.338 5.871-16.292 5.871-8.953 0-16.145-2.643-16.145-5.871 0-3.229 7.338-5.871 16.291-5.871s16.146 2.495 16.146 5.871"/>
   <path fill="#7fba00" d="M124.367 155.979c0 2.201-5.724 3.816-12.916 3.816s-12.917-1.615-12.917-3.816c0-2.202 5.725-3.816 12.917-3.816s12.916 1.761 12.916 3.816"/>
   <path fill="#b8d432" d="M121.578 158.327c1.762-.587 2.643-1.467 2.643-2.348 0-2.202-5.725-3.816-12.917-3.816s-12.916 1.761-12.916 3.816c.146.88 1.174 1.761 2.789 2.348 2.348-.88 6.018-1.467 10.274-1.467 4.11 0 7.78.587 10.128 1.467"/>
</svg>