<svg xmlns="http://www.w3.org/2000/svg" width="500" height="500">
    <circle cx="250" cy="250" r="250" fill="#fff"/>
    <path fill="url(#a)" fill-rule="nonzero" d="M236.79 325.045v12.005h-11.525v-12l11.525-.005zm12.97-12.97H212.3v37.465h37.465l-.005-37.465zm49.48 12.97v12.005h-11.53v-12l11.53-.005zm12.97-12.97h-37.475v37.465h37.47l.005-37.465zm49.955 12.97v12.005h-12.01v-12l12.01-.005zm12.49-12.97h-37.47v37.465h37.47v-37.465zm-62.45-62.45V174.69l-87.42 74.935v-118.65c0-5.765-2.805-11.05-8.41-15.85-5.6-4.8-13.21-8.65-22.815-11.53-9.61-2.88-20.1-4.25-31.465-4.08-11.37.16-21.78 1.6-31.225 4.32s-16.975 6.485-22.575 11.285c-5.6 4.805-8.41 10.09-8.41 15.85V399.5h300.23V174.69l-87.91 74.935zM162.335 112.24c9.605 0 18.415 1.125 26.42 3.365 7.04 1.92 12.73 4.32 17.05 7.2 4.325 2.885 6.485 5.525 6.485 7.93 0 2.4-2.16 5.12-6.485 8.165-4.32 3.05-10.005 5.525-17.05 7.45-8 2.235-16.815 3.36-26.42 3.36s-18.575-1.125-26.9-3.36c-7.045-1.925-12.65-4.4-16.81-7.45-4.165-3.045-6.25-5.76-6.25-8.165 0-2.4 2.085-5.04 6.25-7.925 4.16-2.88 9.765-5.285 16.81-7.205 8.325-2.24 17.295-3.36 26.9-3.36v-.005zm224.81 274.77H112.38V149.23c5.76 4.16 12.97 7.37 21.615 9.605 8.65 2.245 18.01 3.365 28.1 3.365 10.085 0 19.535-1.12 28.34-3.365 8.805-2.24 16.09-5.45 21.855-9.605v127.775l87.43-75.415v75.415l87.425-75.415v185.42z"/>
    <defs>
        <linearGradient id="a" x1="0" x2="1" y1="0" y2="0" gradientTransform="translate(99.885 249.5) scale(300.23)" gradientUnits="userSpaceOnUse">
            <stop offset="0" stop-color="#3999c6"/>
            <stop offset="1" stop-color="#7fba00"/>
        </linearGradient>
    </defs>
</svg>