<?xml version="1.0" encoding="UTF-8"?> <svg xmlns="http://www.w3.org/2000/svg" width="500" height="500"><circle cx="250" cy="250" r="250" fill="#fff"></circle><path d="M250 100c-82.837 0-150 68.86-150 153.792 0 67.96 42.975 125.594 102.585 145.926 7.498 1.407 10.236-3.342 10.236-7.397 0-3.661-.138-15.788-.211-28.63-41.712 9.293-50.529-18.135-50.529-18.135-6.829-17.76-16.653-22.49-16.653-22.49-13.632-9.537 1.035-9.35 1.035-9.35 15.06 1.07 22.989 15.846 22.989 15.846 13.385 23.504 35.12 16.708 43.652 12.765 1.364-9.912 5.245-16.708 9.522-20.538-33.298-3.886-68.326-17.084-68.326-76.014 0-16.802 5.85-30.506 15.426-41.273-1.53-3.905-6.692-19.552 1.483-40.72 0 0 12.58-4.13 41.254 15.77 11.957-3.425 24.783-5.115 37.536-5.171 12.744.056 25.58 1.764 37.555 5.19 28.62-19.918 41.217-15.77 41.217-15.77 8.204 21.187 3.04 36.815 1.502 40.7 9.612 10.768 15.417 24.473 15.417 41.275 0 59.08-35.082 72.09-68.5 75.9 5.403 4.77 10.182 14.118 10.182 28.46 0 20.558-.202 37.135-.202 42.204 0 4.092 2.728 8.88 10.327 7.378C357.063 379.348 400 321.714 400 253.792 400 168.86 332.837 100 250 100z"></path></svg> 